# xmcd
#
# Track frame offsets: 
#        150
#        20177
#        41507
#
# Disc length: 730 seconds
#
# Revision: 5
# Processed by: cddbd v1.5.2PL0 Copyright (c) Steve Scherf et al.
# Submitted via: ExactAudioCopy v0.99pb5
#
DISCID=2002d803
DTITLE=Gary Moore - Oh Pretty Woman
DYEAR=1990
DGENRE=Blues
TTITLE0=Oh Pretty Woman
TTITLE1=King Of The Blues
TTITLE2=The Stumble
EXTD=Produced 1990 YEAR: 1990
EXTT0=
EXTT1=
EXTT2=
PLAYORDER=
